<?xml version="1.0" standalone="no"?><!DOCTYPE svg PUBLIC "-//W3C//DTD SVG 1.1//EN" "http://www.w3.org/Graphics/SVG/1.1/DTD/svg11.dtd"><svg t="1588844127436" class="icon" viewBox="0 0 1024 1024" version="1.1" xmlns="http://www.w3.org/2000/svg" p-id="2624" width="32" height="32" xmlns:xlink="http://www.w3.org/1999/xlink"><defs><style type="text/css"></style></defs><path d="M0 511.93c0 282.72 229.2 511.92 511.93 511.92s511.92-229.2 511.92-511.92S794.65 0 511.93 0 0 229.2 0 511.93z" fill="#FFE5A4" p-id="2625"></path><path d="M511.93 1023.85C227.52 1023.85 0 796.33 0 511.93S227.52 0 511.93 0s511.92 227.52 511.92 511.93-227.52 511.92-511.92 511.92z m0-853.21c-187.71 0-341.29 153.58-341.29 341.29s153.58 341.28 341.29 341.28 341.28-153.58 341.28-341.28-153.58-341.29-341.28-341.29z" fill="#FFD45A" p-id="2626"></path><path d="M369.72 711c-108.07 0-199.08-91-199.08-199.08s91-199.09 199.08-199.09 199.09 91 199.09 199.09S477.8 711 369.72 711z m0-284.41c-45.5 0-85.32 39.82-85.32 85.33s39.82 85.32 85.32 85.32 85.33-39.82 85.33-85.32-39.82-85.32-85.33-85.32z" fill="#FFFFFF" p-id="2627"></path><path d="M654.13 711c-108.08 0-199.08-91-199.08-199.08s91-199.09 199.08-199.09 199.08 91 199.08 199.09S762.2 711 654.13 711z m0-284.41c-45.51 0-85.32 39.82-85.32 85.33s39.81 85.32 85.32 85.32 85.32-39.82 85.32-85.32-39.82-85.32-85.32-85.32z" fill="#FFFFFF" p-id="2628"></path></svg>